<svg xmlns="http://www.w3.org/2000/svg" width="37" height="33" viewBox="0 0 37 33">
    <g fill="none" fill-rule="evenodd">
        <g fill-rule="nonzero">
            <g>
                <g>
                    <g>
                        <g fill="#B7B7B7">
                            <path d="M16.128 5.748c-5.723 0-10.38 4.657-10.38 10.38 0 5.723 4.657 10.38 10.38 10.38 5.723 0 10.38-4.657 10.38-10.38 0-5.723-4.657-10.38-10.38-10.38zM9.043 17.073c-.522 0-.945-.423-.945-.945s.423-.945.945-.945c.521 0 .945.423.945.945s-.424.945-.945.945zm2.075 5.01c-.522 0-.945-.423-.945-.945 0-.521.423-.945.945-.945.521 0 .945.424.945.945 0 .522-.424.945-.945.945zm0-10.02c-.522 0-.945-.423-.945-.945s.423-.945.945-.945c.521 0 .945.423.945.945s-.424.945-.945.945zm2.986 7.034c-.522 0-.945-.423-.945-.945 0-.521.423-.945.945-.945.521 0 .945.424.945.945 0 .522-.424.945-.945.945zm0-4.048c-.522 0-.945-.424-.945-.945 0-.522.423-.945.945-.945.521 0 .945.423.945.945 0 .521-.424.945-.945.945zm2.024 9.11c-.522 0-.945-.424-.945-.946 0-.521.423-.945.945-.945s.945.424.945.945c0 .522-.423.945-.945.945zm0-14.171c-.522 0-.945-.424-.945-.945 0-.522.423-.945.945-.945s.945.423.945.945c0 .521-.423.945-.945.945zm2.024 9.11c-.521 0-.945-.424-.945-.946 0-.521.424-.945.945-.945.522 0 .945.424.945.945 0 .522-.423.945-.945.945zm0-4.05c-.521 0-.945-.423-.945-.944 0-.522.424-.945.945-.945.522 0 .945.423.945.945 0 .521-.423.945-.945.945zm2.986 7.035c-.521 0-.945-.423-.945-.945 0-.521.424-.945.945-.945.522 0 .945.424.945.945 0 .522-.423.945-.945.945zm0-10.02c-.521 0-.945-.423-.945-.945s.424-.945.945-.945c.522 0 .945.423.945.945s-.423.945-.945.945zm2.075 5.01c-.521 0-.945-.423-.945-.945s.424-.945.945-.945c.522 0 .945.423.945.945s-.423.945-.945.945zM11.382 2.391l.081-.022.586 2.187c.59-.208 1.2-.373 1.826-.49l-.586-2.186.081-.022c.504-.135.804-.653.669-1.157s-.654-.804-1.158-.669l-1.989.533c-.504.135-.803.654-.668 1.158.13.484.634.808 1.158.668zM5.149 6.605l.06-.06L6.814 8.15c.41-.479.857-.925 1.336-1.336L6.545 5.209l.06-.06c.369-.37.369-.968 0-1.337-.37-.369-.968-.369-1.337 0L3.812 5.268c-.369.37-.369.968 0 1.337.37.369.968.369 1.337 0zM.7 14.038c.487.13 1.018-.146 1.158-.668l.022-.081 2.186.585c.117-.626.282-1.236.49-1.825l-2.187-.586.022-.082c.135-.504-.164-1.022-.668-1.157-.505-.135-1.023.164-1.158.668l-.533 1.989c-.135.504.164 1.022.669 1.157zM2.37 20.793l2.186-.586c-.208-.59-.373-1.2-.49-1.826l-2.186.586-.022-.081c-.14-.522-.671-.799-1.157-.669-.505.136-.804.654-.669 1.158l.533 1.989c.135.504.653.803 1.158.668.504-.135.803-.653.668-1.158l-.022-.081zM6.814 24.106L5.209 25.71l-.06-.06c-.37-.369-.968-.369-1.337 0-.369.37-.369.968 0 1.337l1.456 1.456c.37.369.968.369 1.337 0 .369-.37.369-.968 0-1.337l-.06-.06 1.605-1.605c-.479-.41-.925-.857-1.336-1.336zM13.37 30.398l-.081-.022.586-2.187c-.627-.116-1.237-.28-1.826-.49l-.586 2.188-.081-.022c-.524-.14-1.028.184-1.158.668-.135.504.164 1.022.668 1.158l1.99.532c.503.136 1.022-.164 1.157-.668s-.165-1.022-.669-1.157zM20.874 29.865l-.081.022-.586-2.187c-.59.208-1.2.373-1.826.49l.586 2.186-.081.022c-.504.135-.804.653-.669 1.157.136.504.654.804 1.158.668l1.989-.532c.504-.136.803-.654.668-1.158-.13-.484-.634-.808-1.158-.668zM27.107 25.651l-.06.06-1.605-1.605c-.41.479-.857.925-1.336 1.336l1.605 1.605-.06.06c-.369.37-.369.968 0 1.337.37.369.968.369 1.337 0l1.456-1.456c.369-.37.369-.968 0-1.337-.37-.369-.968-.369-1.337 0zM31.555 18.217c-.486-.13-1.017.147-1.157.669l-.022.081-2.186-.586c-.117.627-.282 1.236-.49 1.826l2.187.586-.022.081c-.135.505.164 1.023.668 1.158.505.135 1.023-.164 1.158-.668l.533-1.99c.135-.503-.165-1.022-.669-1.157zM29.887 11.463l-2.187.586c.208.59.373 1.199.49 1.825l2.186-.585.022.081c.14.522.671.799 1.157.668.504-.135.804-.653.668-1.157l-.532-1.989c-.136-.504-.653-.803-1.158-.668-.504.135-.803.653-.668 1.157l.022.082zM25.442 8.15l1.605-1.605.06.06c.37.369.968.369 1.337 0 .369-.37.369-.968 0-1.337l-1.456-1.456c-.37-.369-.968-.369-1.337 0-.369.37-.369.968 0 1.337l.06.06-1.605 1.605c.479.41.925.857 1.336 1.336zM18.886 1.858l.081.022-.586 2.187c.627.116 1.237.28 1.826.49l.586-2.188.081.022c.524.14 1.028-.184 1.158-.668.135-.504-.164-1.023-.668-1.158l-1.99-.532c-.503-.136-1.022.164-1.157.668s.165 1.022.669 1.157z" transform="translate(-394 -279) translate(105 120) translate(259 115) translate(30 44)"/>
                        </g>
                        <g>
                            <path fill="#65C400" d="M6.3 12.6C2.826 12.6 0 9.774 0 6.3 0 2.826 2.826 0 6.3 0c3.474 0 6.3 2.826 6.3 6.3 0 3.474-2.826 6.3-6.3 6.3z" transform="translate(-394 -279) translate(105 120) translate(259 115) translate(30 44) translate(23.4 9.9)"/>
                            <g fill="#F8F8F8">
                                <path d="M3.6.03l.015.005c.025.008.049.017.073.028.013.005.027.012.04.02.016.007.03.016.045.024.016.01.032.02.047.032l.037.03.025.02 2.665 2.423c.297.27.319.73.049 1.027-.144.157-.34.238-.538.238-.176 0-.35-.062-.49-.19L4.118 2.37l.001 3.688c0 .401-.325.727-.727.727-.401 0-.727-.326-.727-.727V2.37L1.216 3.689c-.298.268-.757.248-1.027-.05-.27-.296-.248-.757.048-1.027L2.903.19l.024-.02.038-.03-.062.05c.034-.031.07-.058.109-.082C3.026.1 3.04.09 3.056.083c.014-.008.027-.015.041-.02.024-.011.048-.02.073-.028L3.184.03 3.2.026c.026-.007.052-.013.078-.017L3.29.007C3.323.002 3.357 0 3.392 0c.035 0 .07.002.103.007l.012.002c.027.004.053.01.078.017L3.6.03z" transform="translate(-394 -279) translate(105 120) translate(259 115) translate(30 44) translate(23.4 9.9) translate(2.908 2.908)"/>
                            </g>
                        </g>
                    </g>
                </g>
            </g>
        </g>
    </g>
</svg>
