<svg xmlns="http://www.w3.org/2000/svg" width="86" height="86" viewBox="0 0 86 86">
    <g fill="none" fill-rule="evenodd">
        <g fill="#FFF" fill-rule="nonzero">
            <g>
                <g>
                    <path d="M34.133 61.867L59.733 42.667 34.133 23.467z" transform="translate(-249 -2162) translate(106 2107) translate(143 55)"/>
                    <path d="M42.667 0C19.093 0 0 19.093 0 42.667 0 66.24 19.093 85.333 42.667 85.333c23.573 0 42.666-19.093 42.666-42.666C85.333 19.093 66.24 0 42.667 0zm0 76.8C23.85 76.8 8.533 61.483 8.533 42.667c0-18.816 15.318-34.134 34.134-34.134 18.816 0 34.133 15.318 34.133 34.134C76.8 61.483 61.483 76.8 42.667 76.8z" transform="translate(-249 -2162) translate(106 2107) translate(143 55)"/>
                </g>
            </g>
        </g>
    </g>
</svg>
