<svg xmlns="http://www.w3.org/2000/svg" width="150" height="32" viewBox="0 0 150 32">
    <g fill="none" fill-rule="evenodd">
        <g fill-rule="nonzero">
            <g>
                <g>
                    <g>
                        <path fill="#99AEBB" d="M14.302 5.291c.348.15.614.323.804.533.142.155.237.34.276.53.533.167 1.086.373 1.645.625 1.288.58 2.612 1.417 3.822 2.609.26-.335.512-.686.756-1.052l.5.332c-.268.403-.547.789-.835 1.156 1.054 1.139 2.003 2.572 2.738 4.369L24 14.377c.308-.449.607-.919.895-1.412l.518.303c-.368.63-.754 1.224-1.155 1.785.495 1.408.706 2.754.706 4.02 0 1.83-.44 3.488-1.083 4.936.65-.736 1.238-1.57 1.747-2.513l.529.284c-.873 1.622-1.977 2.932-3.208 3.99-.36.583-.744 1.118-1.126 1.601-1.37 1.735-2.737 2.805-3.063 3.05l-.097.246-.208-.122c-.305.05-1.19.178-2.395.178-1.302 0-2.976-.148-4.689-.711-.73.05-1.392.069-1.963.069-1.332 0-2.167-.098-2.176-.099l.07-.596s.046.006.142.015c.095.008.236.02.419.032.364.024.894.048 1.545.048.19 0 .392-.002.604-.007l-.05-.023c-2.016-.954-3.954-2.602-5.22-5.335-1.902-.032-3.104-.244-3.116-.246l.105-.591.058.01c.04.006.101.016.181.026.16.023.395.053.698.084.461.045 1.077.091 1.812.11l-.025-.064c-.745-1.87-1.053-3.639-1.053-5.28 0-.231.006-.46.018-.686-1.751-.034-2.86-.217-2.87-.218l.098-.592s.077.013.23.033c.154.02.382.047.673.075.479.044 1.131.089 1.914.103.234-2.375 1.091-4.437 2.11-6.117-.219-.046-.406-.103-.568-.169-.396-.16-.647-.383-.776-.629-.087-.162-.115-.324-.115-.46.001-.236.08-.391.091-.417l.533.27h.003l-.01.03-.017.118c0 .054.01.113.045.178.035.065.097.143.226.229.17.112.464.23.932.305.266-.403.537-.78.808-1.132 1.463-1.894 2.92-3.048 3.255-3.302l.1-.247.22.131c.107-.006.298-.014.558-.014h.106c.773.007 2.07.087 3.583.467-.112-.091-.272-.187-.485-.278l.237-.552zm2.052 23.876l-.096.028c-1.101.303-2.18.507-3.185.643 1.092.217 2.124.285 2.988.285.632 0 1.173-.036 1.58-.077-.45-.286-.878-.58-1.287-.879zm2.43-.847l-.106.044c-.295.124-.59.238-.886.345-.237.085-.474.166-.71.241.31.219.635.435.97.646l.303.188.01-.029.032-.096.035-.106c.098-.303.222-.72.352-1.233zm-7.672-4.823l-.251.054c-2.13.44-4.09.568-5.651.568h.2c1.206 2.45 2.963 3.91 4.81 4.79.407.193.818.357 1.229.496 1.284-.097 2.768-.3 4.302-.696-2.05-1.611-3.554-3.386-4.639-5.212zm10.303 3.425l-.131.085c-.588.377-1.193.708-1.806 1-.123.528-.246.98-.354 1.341l.032-.029.118-.105c.567-.51 1.324-1.259 2.08-2.215l.061-.077zm-2.054-6.98l-.104.074c-1.335.932-2.716 1.66-4.09 2.225-1.162.479-2.319.841-3.439 1.114 1.101 1.807 2.635 3.562 4.746 5.154.371-.11.743-.23 1.114-.364.459-.166.916-.35 1.37-.557.29-1.327.558-3.088.558-5.073 0-.824-.046-1.686-.155-2.572zm4.462-4.3l-.135.174c-1.165 1.484-2.442 2.712-3.775 3.723.144 1.03.203 2.028.203 2.976 0 1.818-.218 3.448-.477 4.744.994-.508 1.956-1.128 2.848-1.883 1.048-1.722 1.878-3.859 1.878-6.303 0-1.083-.162-2.229-.542-3.432zM8.822 17.073l-.111.02c-1.765.3-3.393.391-4.722.391h.032c-.012.224-.018.45-.018.68 0 1.565.293 3.256 1.01 5.058.04.1.08.199.122.296h.075c1.543 0 3.486-.128 5.591-.57-.11-.199-.214-.4-.314-.6-.878-1.768-1.394-3.559-1.665-5.275zm8.59-3.404l-.057.04c-1.429.987-2.932 1.726-4.426 2.273-1.192.438-2.378.755-3.517.981.262 1.669.763 3.406 1.613 5.118.122.244.25.488.386.732 1.148-.27 2.336-.637 3.527-1.128 1.46-.6 2.924-1.387 4.328-2.413-.263-1.659-.757-3.385-1.59-5.087-.084-.172-.172-.344-.264-.516zm3.477-3.176l-.167.195c-.877 1.017-1.827 1.886-2.82 2.627.11.201.214.403.313.606.81 1.655 1.31 3.33 1.592 4.942 1.343-1.054 2.622-2.34 3.778-3.905-.041-.112-.086-.225-.132-.339-.696-1.697-1.582-3.049-2.564-4.126zm-12.1.13l-.076.019c-.683.16-1.313.253-1.83.255l-.15-.003c-.183-.007-.353-.018-.512-.034-1.032 1.646-1.911 3.68-2.153 6.024 1.32-.003 2.931-.1 4.67-.405-.119-.924-.168-1.821-.168-2.678 0-1.144.088-2.215.22-3.178zm4.702-1.9l-.187.113c-.39.226-.815.443-1.259.647-.849.387-1.76.725-2.626.974-.148 1.002-.25 2.132-.25 3.344 0 .823.048 1.684.159 2.567 1.102-.22 2.247-.527 3.395-.948 1.49-.548 2.983-1.286 4.396-2.278-.884-1.528-2.065-3.023-3.628-4.418zm1.83-1.759l-.005.02c-.054.14-.13.273-.223.402-.185.26-.438.506-.742.747-.106.085-.22.169-.338.252 1.53 1.39 2.706 2.879 3.594 4.402 1.013-.764 1.978-1.666 2.864-2.73-1.165-1.16-2.443-1.967-3.691-2.532-.494-.223-.983-.408-1.458-.561zm-5.717-.087l-.081.072-.11.1c-.603.55-1.407 1.363-2.21 2.403-.203.264-.407.543-.607.835l.161.007.126.003c.47 0 1.096-.094 1.786-.262l.216-.054c.215-1.313.498-2.384.719-3.104zm.78-.458l-.012.038c-.022.061-.045.13-.07.206-.125.378-.293.93-.46 1.62-.11.45-.22.958-.317 1.516l.216-.067.22-.072c1.07-.358 2.171-.837 3.052-1.35-.702-.588-1.475-1.157-2.326-1.701l-.303-.19zm.865-.16l.064.041c.814.537 1.557 1.097 2.235 1.677.48-.323.853-.652 1.057-.94.063-.087.11-.17.141-.245-1.422-.393-2.677-.508-3.497-.533z" transform="translate(-105 -2523) translate(0 2514) translate(105 9)"/>
                        <path fill="#0070EE" d="M26.3 18.25h-.6c0 3.385-1.37 6.444-3.588 8.663-2.218 2.218-5.277 3.587-8.662 3.588-3.385 0-6.444-1.37-8.662-3.588C2.57 24.694 1.2 21.635 1.2 18.251c0-3.385 1.37-6.444 3.588-8.662C7.006 7.37 10.065 6 13.45 6c3.385 0 6.444 1.37 8.662 3.589 2.218 2.218 3.588 5.277 3.588 8.662h1.2C26.9 10.822 20.88 4.8 13.45 4.8 6.022 4.8 0 10.822 0 18.25c0 7.43 6.022 13.45 13.45 13.451 7.429 0 13.45-6.022 13.45-13.45h-.6" transform="translate(-105 -2523) translate(0 2514) translate(105 9)"/>
                        <path fill="#E02020" d="M24.915.69c0 .382-.31.692-.691.692-.381 0-.69-.31-.69-.691 0-.381.309-.691.69-.691.381 0 .691.31.691.69M1.68 25.71s-1.81 3.726 0 5.558c1.81 1.831 10.47-1.75 16.767-11.071 6.709-9.932 5.726-17.918 5.726-17.918s.204 10.689-8.373 19.359c-8.578 8.67-14.395 8.457-14.12 4.071" transform="translate(-105 -2523) translate(0 2514) translate(105 9)"/>
                    </g>
                    <g>
                        <path fill="#FFF" d="M6.588 10.8V9.105H2.11V.562H0V10.8h6.588zm3.22 0V3.192H7.77V10.8h2.039zm5.492 0l2.566-7.608h-2.123L14.33 8.318l-1.414-5.126h-2.123l2.566 7.608H15.3zm6.87.14c.632 0 1.209-.12 1.73-.361.52-.242.932-.578 1.237-1.01l-.999-1.117c-.44.567-1.052.85-1.835.85-.506 0-.924-.15-1.255-.45-.33-.3-.528-.698-.594-1.195h4.844v-.83c0-1.204-.298-2.135-.896-2.791-.598-.656-1.417-.984-2.457-.984-.694 0-1.312.162-1.853.488-.542.326-.96.79-1.255 1.392-.296.603-.443 1.286-.443 2.05v.197c0 1.139.35 2.05 1.05 2.735.702.684 1.61 1.027 2.726 1.027zm1.132-4.668h-2.827c.07-.506.23-.895.482-1.167.25-.272.577-.408.98-.408.432 0 .765.123.999.369.234.246.356.594.366 1.044v.162zm5.393 4.528V4.064L32.8 10.8h2.11V.562h-2.103v6.75L28.695.562h-2.11V10.8h2.11zm11.425.14c.633 0 1.21-.12 1.73-.361.52-.242.933-.578 1.237-1.01l-.998-1.117c-.44.567-1.052.85-1.835.85-.506 0-.925-.15-1.255-.45-.33-.3-.529-.698-.594-1.195h4.844v-.83c0-1.204-.299-2.135-.896-2.791-.598-.656-1.417-.984-2.458-.984-.693 0-1.311.162-1.852.488-.542.326-.96.79-1.256 1.392-.295.603-.442 1.286-.442 2.05v.197c0 1.139.35 2.05 1.05 2.735.701.684 1.61 1.027 2.725 1.027zm1.132-4.668h-2.826c.07-.506.23-.895.481-1.167s.578-.408.981-.408c.432 0 .764.123.999.369.234.246.356.594.365 1.044v.162zm6.202 4.528l1.441-4.788 1.442 4.788h1.701l1.94-7.608h-1.96l-1 4.845-1.384-4.845h-1.47L46.772 8.03l-.992-4.838H43.82l1.94 7.608h1.695zm10.427.14c.942 0 1.711-.214 2.306-.643.596-.429.893-.99.893-1.684 0-.97-.536-1.652-1.61-2.046-.347-.126-.773-.24-1.28-.34-.506-.102-.865-.221-1.079-.36-.213-.138-.32-.32-.32-.544 0-.24.094-.436.282-.591.187-.155.452-.232.794-.232.399 0 .692.095.88.285.187.19.28.43.28.72h2.032c0-.726-.29-1.317-.868-1.771-.579-.455-1.351-.682-2.317-.682-.904 0-1.637.226-2.197.678-.56.452-.84 1.016-.84 1.691 0 1.158.904 1.927 2.714 2.306.544.113.938.24 1.185.384.246.143.369.338.369.587 0 .239-.1.432-.3.58-.198.147-.493.221-.882.221-.417 0-.75-.096-.998-.288-.248-.192-.382-.469-.4-.83h-1.927c0 .46.14.887.422 1.283.28.397.669.708 1.163.936.495.227 1.06.34 1.698.34z" transform="translate(-105 -2523) translate(0 2514) translate(105 9) translate(30.914 12.6)"/>
                        <path fill="#99AEBB" d="M69.3 10.8V9.696h-5.154V6.068h4.437V4.964h-4.437v-3.29h5.084V.561h-6.434V10.8H69.3zm4.29 0l2.727-7.608h-1.329l-1.884 5.843-1.934-5.843h-1.329l2.757 7.608h.991zm7.044.14c1.275 0 2.232-.49 2.87-1.469l-.795-.619c-.24.31-.518.558-.837.746-.319.187-.708.28-1.167.28-.647 0-1.18-.23-1.6-.692-.42-.461-.639-1.067-.657-1.817h5.154v-.542c0-1.214-.275-2.147-.823-2.798-.549-.652-1.317-.977-2.306-.977-.605 0-1.166.167-1.684.502-.518.335-.921.8-1.21 1.392-.288.593-.432 1.267-.432 2.022v.239c0 1.134.323 2.04.97 2.718.647.677 1.486 1.016 2.517 1.016zm1.667-4.64H78.49c.084-.69.305-1.225.66-1.607.357-.382.798-.573 1.323-.573.543 0 .975.182 1.293.545.32.364.497.876.535 1.537V6.3zm4.106 4.5V5.4c.305-.727.884-1.09 1.737-1.09.23 0 .443.017.64.05V3.15c-.132-.066-.324-.098-.577-.098-.783 0-1.387.34-1.814 1.02l-.021-.88h-1.266V10.8h1.301zm4.036 3.073c1.031 0 1.784-.633 2.257-1.899l3.059-8.782h-1.393l-1.771 5.703-1.899-5.703h-1.42l2.714 7.524-.288.773c-.16.473-.363.8-.609.977-.246.179-.59.268-1.03.268l-.351-.029v1.055l.485.092.246.02zm9.056-2.932c.928 0 1.653-.32 2.173-.957l.063.816h1.195V0h-1.3v3.966c-.52-.61-1.226-.914-2.117-.914-.895 0-1.62.355-2.172 1.065-.554.71-.83 1.649-.83 2.816v.098c0 1.163.278 2.105.833 2.827.556.722 1.274 1.083 2.155 1.083zm.324-1.104c-.628 0-1.12-.244-1.477-.732-.356-.487-.534-1.162-.534-2.025 0-.965.178-1.694.534-2.186.356-.492.853-.739 1.49-.739.807 0 1.405.36 1.794 1.076v3.495c-.38.74-.982 1.11-1.807 1.11zm7.474 1.104c.839 0 1.56-.314 2.165-.943.047.385.108.652.183.802h1.364v-.113c-.178-.412-.267-.967-.267-1.666V5.52c-.019-.77-.276-1.373-.773-1.811-.497-.438-1.184-.657-2.06-.657-.554 0-1.061.103-1.523.309-.461.206-.827.486-1.097.84s-.404.72-.404 1.1h1.308c0-.332.157-.616.471-.85.314-.235.703-.352 1.167-.352.53 0 .93.135 1.203.405.271.269.407.631.407 1.086v.597h-1.265c-1.092 0-1.94.22-2.542.658-.602.438-.904 1.053-.904 1.846 0 .651.24 1.19.721 1.613.48.425 1.096.637 1.846.637zm.19-1.132c-.427 0-.776-.115-1.048-.345-.272-.23-.408-.548-.408-.956 0-.933.797-1.4 2.39-1.4h1.02V8.67c-.164.337-.429.611-.794.822-.366.211-.752.317-1.16.317zm5.526 4.064c1.032 0 1.784-.633 2.257-1.899l3.059-8.782h-1.392l-1.772 5.703-1.899-5.703h-1.42l2.714 7.524-.288.773c-.16.473-.362.8-.608.977-.246.179-.59.268-1.03.268l-.352-.029v1.055l.485.092.246.02z" transform="translate(-105 -2523) translate(0 2514) translate(105 9) translate(30.914 12.6)"/>
                    </g>
                    <path fill="#E02020" d="M39.703 14.878c.342 0 .618-.098.826-.295.209-.197.313-.45.313-.76 0-.304-.103-.555-.31-.752-.205-.197-.482-.295-.829-.295-.351 0-.63.098-.833.295-.204.197-.306.448-.306.752 0 .31.104.563.313.76.209.197.484.295.826.295z" transform="translate(-105 -2523) translate(0 2514) translate(105 9)"/>
                </g>
            </g>
        </g>
    </g>
</svg>
